<?xml version="1.0" encoding="UTF-8"?>
<svg id="Ebene_2" data-name="Ebene 2" xmlns="http://www.w3.org/2000/svg" viewBox="0 0 59.82 64.09">
  <g id="Ebene_1-2" data-name="Ebene 1">
    <path id="main" d="M29.93,1.22S19.45,8.72,1.1,11.68C-.15,32.77,10.16,58.93,29.93,63.07c17.4-4.29,30.05-25.07,28.8-51.46C41.71,9.26,29.93,1.22,29.93,1.22Z" style="fill: #172f49; stroke: #76ddd8; stroke-miterlimit: 10; stroke-width: 2px;"/>
    <path id="main-2" data-name="main" d="M30,5.39s-9.19,6.56-25.27,9.16c-.08,18.29,7.6,38.88,25.26,45,14.35-4.77,25.66-22.32,25.26-45.06-14.92-2.05-25.25-9.1-25.25-9.1Z" style="fill: #182f49; stroke: #00b1ff; stroke-miterlimit: 10; stroke-width: .5px;"/>
    <polygon points="32.81 13.67 29.91 12 27.01 13.67 27.01 17.02 29.91 18.7 32.81 17.02 32.81 13.67" style="fill: none; stroke: #76ddd8; stroke-miterlimit: 10; stroke-width: .5px;"/>
    <polygon points="32.89 45.24 29.99 43.57 27.09 45.24 27.09 48.59 29.99 50.27 32.89 48.59 32.89 45.24" style="fill: none; stroke: #76ddd8; stroke-miterlimit: 10; stroke-width: .5px;"/>
    <g>
      <path d="M24.54,22.43v11.64h-2.12l-5.06-7.32h-.08v7.32h-2.46v-11.64h2.16l5.02,7.32h.1v-7.32h2.45Z" style="fill: #fff;"/>
      <path d="M25.76,34.06v-11.64h4.59c.88,0,1.63.17,2.26.5.62.33,1.09.8,1.42,1.39.33.59.49,1.28.49,2.05s-.17,1.45-.5,2.05c-.33.59-.82,1.05-1.45,1.38-.63.33-1.39.49-2.29.49h-2.93v-1.97h2.53c.47,0,.87-.08,1.17-.25.31-.16.54-.39.69-.69.15-.29.23-.63.23-1.01s-.08-.72-.23-1.01c-.15-.29-.39-.52-.7-.68-.31-.16-.7-.24-1.18-.24h-1.66v9.62h-2.46Z" style="fill: #fff;"/>
      <path d="M43.04,26.19c-.08-.28-.19-.52-.34-.74-.14-.21-.32-.4-.53-.55-.21-.15-.44-.26-.7-.34-.26-.08-.55-.12-.87-.12-.59,0-1.12.15-1.57.44-.45.3-.8.72-1.05,1.29s-.38,1.25-.38,2.06.12,1.5.37,2.07c.25.57.59,1,1.04,1.3s.98.45,1.6.45c.56,0,1.03-.1,1.43-.3.4-.2.7-.48.91-.84s.32-.79.32-1.29l.5.07h-3v-1.85h4.87v1.47c0,1.02-.22,1.9-.65,2.63s-1.03,1.3-1.78,1.69-1.62.59-2.6.59c-1.09,0-2.05-.24-2.88-.72-.83-.48-1.47-1.17-1.93-2.06s-.69-1.95-.69-3.18c0-.94.14-1.79.41-2.53.27-.74.66-1.37,1.16-1.88s1.07-.91,1.73-1.18c.66-.27,1.37-.4,2.14-.4.66,0,1.27.1,1.84.29.57.19,1.07.46,1.51.81.44.35.8.76,1.08,1.24.28.48.46,1.01.54,1.58h-2.5Z" style="fill: #fff;"/>
    </g>
    <g>
      <path d="M13.36,36.04v2.61h-.31l-1.42-2.05h-.03v2.05h-.32v-2.61h.31l1.43,2.05h.03v-2.05h.31Z" style="fill: #fff;"/>
      <path d="M16.01,37.34c0,.27-.05.51-.15.71s-.24.35-.41.46-.37.16-.59.16-.42-.05-.59-.16c-.17-.11-.31-.26-.41-.46-.1-.2-.15-.44-.15-.71s.05-.51.15-.71c.1-.2.24-.35.41-.46.17-.11.37-.16.59-.16s.42.05.59.16.31.26.41.46.15.44.15.71ZM15.7,37.34c0-.23-.04-.42-.11-.57-.07-.16-.18-.27-.3-.35s-.27-.12-.43-.12-.3.04-.43.12-.23.2-.3.35-.11.35-.11.57.04.42.11.57.18.27.3.35.27.12.43.12.3-.04.43-.12.23-.2.3-.35c.08-.16.11-.35.11-.57Z" style="fill: #fff;"/>
      <path d="M17.17,38.64h-.8v-2.61h.84c.25,0,.47.05.65.16.18.1.32.25.41.45.1.19.14.43.14.7s-.05.51-.15.7c-.1.2-.24.35-.42.45-.18.1-.41.16-.67.16ZM16.68,38.36h.47c.22,0,.39-.04.54-.12s.25-.2.32-.36c.07-.15.11-.34.11-.55s-.04-.39-.1-.54c-.07-.15-.17-.27-.31-.35s-.31-.12-.51-.12h-.5v2.05Z" style="fill: #fff;"/>
      <path d="M18.76,38.64v-2.61h1.57v.28h-1.26v.88h1.18v.28h-1.18v.89h1.28v.28h-1.59Z" style="fill: #fff;"/>
      <path d="M21.55,38.64v-2.61h.88c.2,0,.37.04.5.11s.23.17.29.3.09.26.09.42-.03.29-.09.42c-.06.13-.16.23-.29.3-.13.07-.3.11-.5.11h-.63v-.28h.62c.14,0,.25-.02.34-.07.08-.05.15-.11.19-.2.04-.08.06-.18.06-.28s-.02-.2-.06-.28c-.04-.08-.1-.15-.19-.19-.08-.05-.2-.07-.34-.07h-.56v2.33h-.32Z" style="fill: #fff;"/>
      <path d="M23.75,38.64h-.33l.96-2.61h.33l.96,2.61h-.33l-.78-2.19h-.02l-.78,2.19ZM23.88,37.63h1.33v.28h-1.33v-.28Z" style="fill: #fff;"/>
      <path d="M27.99,36.85h-.32c-.02-.09-.05-.17-.1-.24s-.1-.13-.17-.17-.14-.08-.22-.11c-.08-.02-.16-.04-.25-.04-.16,0-.3.04-.43.12s-.23.2-.3.35-.11.35-.11.57.04.42.11.57.18.27.3.35.27.12.43.12c.09,0,.17-.01.25-.04.08-.02.15-.06.22-.11.07-.05.12-.11.17-.17s.08-.15.1-.24h.32c-.02.13-.07.25-.13.36-.06.11-.14.19-.23.27-.09.07-.2.13-.31.17-.12.04-.24.06-.37.06-.22,0-.42-.05-.59-.16-.17-.11-.31-.26-.41-.46-.1-.2-.15-.44-.15-.71s.05-.51.15-.71c.1-.2.24-.35.41-.46.17-.11.37-.16.59-.16.13,0,.26.02.37.06.12.04.22.09.31.17.09.07.17.16.23.27.06.11.11.22.13.36Z" style="fill: #fff;"/>
      <path d="M28.32,38.64v-2.61h.32v1.29h.03l1.17-1.29h.41l-1.09,1.18,1.09,1.43h-.38l-.91-1.21-.33.37v.85h-.32Z" style="fill: #fff;"/>
      <path d="M30.58,38.64h-.33l.96-2.61h.33l.96,2.61h-.33l-.78-2.19h-.02l-.78,2.19ZM30.71,37.63h1.33v.28h-1.33v-.28Z" style="fill: #fff;"/>
      <path d="M34.5,36.85c-.03-.09-.06-.16-.11-.23s-.1-.13-.16-.18c-.06-.05-.13-.09-.21-.11-.08-.03-.17-.04-.26-.04-.15,0-.29.04-.42.12-.13.08-.23.2-.3.35-.07.16-.11.35-.11.57s.04.42.11.57.18.27.31.35c.13.08.27.12.44.12.15,0,.28-.03.4-.1.11-.06.2-.15.27-.27.06-.12.1-.26.1-.42l.1.02h-.78v-.28h.99v.28c0,.21-.05.4-.14.56-.09.16-.22.28-.38.37s-.34.13-.55.13c-.23,0-.43-.05-.61-.16-.17-.11-.31-.26-.41-.46s-.15-.44-.15-.71c0-.21.03-.39.08-.56.06-.16.13-.31.24-.42.1-.12.22-.21.36-.27.14-.06.29-.09.46-.09.14,0,.27.02.39.06.12.04.23.1.32.17.09.08.17.16.23.27.06.1.11.22.13.35h-.33Z" style="fill: #fff;"/>
      <path d="M35.21,38.64v-2.61h1.57v.28h-1.26v.88h1.18v.28h-1.18v.89h1.28v.28h-1.59Z" style="fill: #fff;"/>
      <path d="M39.78,36.85c-.03-.09-.06-.16-.11-.23s-.1-.13-.16-.18c-.06-.05-.13-.09-.21-.11-.08-.03-.17-.04-.26-.04-.15,0-.29.04-.42.12-.13.08-.23.2-.3.35-.07.16-.11.35-.11.57s.04.42.11.57.18.27.31.35c.13.08.27.12.44.12.15,0,.28-.03.4-.1.11-.06.2-.15.27-.27.06-.12.1-.26.1-.42l.1.02h-.78v-.28h.99v.28c0,.21-.05.4-.14.56-.09.16-.22.28-.38.37s-.34.13-.55.13c-.23,0-.43-.05-.61-.16-.17-.11-.31-.26-.41-.46s-.15-.44-.15-.71c0-.21.03-.39.08-.56.06-.16.13-.31.24-.42.1-.12.22-.21.36-.27.14-.06.29-.09.46-.09.14,0,.27.02.39.06.12.04.23.1.32.17.09.08.17.16.23.27.06.1.11.22.13.35h-.33Z" style="fill: #fff;"/>
      <path d="M42.19,36.04h.32v1.73c0,.18-.04.34-.13.48-.08.14-.2.25-.35.33-.15.08-.33.12-.53.12s-.38-.04-.53-.12c-.15-.08-.27-.19-.35-.33s-.13-.3-.13-.48v-1.73h.32v1.7c0,.13.03.24.08.34s.14.18.24.23c.1.06.23.08.37.08s.27-.03.37-.08.18-.13.24-.23c.06-.1.08-.21.08-.34v-1.7Z" style="fill: #fff;"/>
      <path d="M43.07,38.64h-.33l.96-2.61h.33l.96,2.61h-.33l-.78-2.19h-.02l-.78,2.19ZM43.19,37.63h1.33v.28h-1.33v-.28Z" style="fill: #fff;"/>
      <path d="M45.2,38.64v-2.61h.88c.2,0,.37.03.5.1.13.07.23.16.29.28.06.12.09.26.09.41s-.03.29-.09.41c-.06.12-.16.21-.29.28-.13.07-.3.1-.5.1h-.71v-.29h.7c.14,0,.25-.02.34-.06.09-.04.15-.1.19-.17.04-.07.06-.16.06-.27s-.02-.2-.06-.27c-.04-.08-.1-.14-.19-.18s-.2-.06-.34-.06h-.56v2.33h-.32ZM46.43,37.47l.64,1.17h-.37l-.63-1.17h.36Z" style="fill: #fff;"/>
      <path d="M48.12,38.64h-.8v-2.61h.84c.25,0,.47.05.65.16.18.1.32.25.41.45.1.19.14.43.14.7s-.05.51-.15.7c-.1.2-.24.35-.42.45-.18.1-.41.16-.67.16ZM47.63,38.36h.47c.22,0,.39-.04.54-.12s.25-.2.32-.36c.07-.15.11-.34.11-.55s-.04-.39-.1-.54c-.07-.15-.17-.27-.31-.35s-.31-.12-.51-.12h-.5v2.05Z" style="fill: #fff;"/>
    </g>
  </g>
</svg>